<?xml version="1.0" encoding="UTF-8"?>
<svg version="1.1" xmlns="http://www.w3.org/2000/svg" width="640" height="640">
<path d="M0 0 C211.2 0 422.4 0 640 0 C640 211.2 640 422.4 640 640 C428.8 640 217.6 640 0 640 C0 428.8 0 217.6 0 0 Z " fill="#102039" transform="translate(0,0)"/>
<path d="M0 0 C0.5 2.5625 0.5 2.5625 0 6 C-3.31918581 9.88818909 -6.86223062 13.10899045 -12 14 C-2.16982302 26.67575453 13.94754335 35.78044044 29.90527344 37.80517578 C41.26976716 38.86215317 53.25877608 39.3039101 64 35 C64.73605469 34.7215625 65.47210938 34.443125 66.23046875 34.15625 C75.65273422 30.28728436 86.34680622 24.90555966 93 17 C93 16.01 93 15.02 93 14 C91.9275 13.443125 90.855 12.88625 89.75 12.3125 C86.34477786 10.34688397 84.02342851 8.45669037 82 5 C82.25 2.1875 82.25 2.1875 83 0 C88.72149621 0.49784448 92.83909477 2.11853516 97.875 4.8125 C102.73396525 7.35653583 107.605186 9.75613888 112.62988281 11.95727539 C137.52933542 22.91170082 137.52933542 22.91170082 146 30 C146.969375 30.78632813 147.93875 31.57265625 148.9375 32.3828125 C159.23336834 41.05556748 167.04485326 52.00744544 171 65 C171.52980469 66.72863281 171.52980469 66.72863281 172.0703125 68.4921875 C173.45317408 74.18694826 173.40726542 79.91808483 173.4375 85.75 C173.47037109 86.8534375 173.50324219 87.956875 173.53710938 89.09375 C173.59263716 97.69550916 172.08448138 106.24458075 166.30566406 112.97265625 C153.25281096 124.78875743 129.78838917 124.30214504 113.37817383 124.2746582 C111.64193505 124.27901533 109.90569818 124.28420178 108.16946411 124.29014587 C103.48940055 124.30344202 98.8094182 124.3041249 94.12933946 124.30158257 C90.2035587 124.30050609 86.27779393 124.30541363 82.35201663 124.310188 C73.078334 124.32125155 63.80469188 124.32173891 54.53100586 124.31567383 C45.00902688 124.30964141 35.48719594 124.32193374 25.96524221 124.3432439 C17.7507445 124.36094241 9.53629356 124.36684818 1.32177752 124.36360615 C-3.56690173 124.36180567 -8.45547545 124.36430428 -13.34413719 124.37832069 C-17.94817424 124.39102897 -22.55198317 124.38883408 -27.1560173 124.37590981 C-28.8303657 124.37357216 -30.50473081 124.37617552 -32.17905998 124.38453293 C-49.10965885 124.46284147 -71.63428985 124.19657613 -84.44921875 111.7265625 C-90.69483378 104.77300622 -91.33871062 97.33249797 -91.25 88.375 C-91.24250732 87.39096191 -91.23501465 86.40692383 -91.22729492 85.39306641 C-90.94700536 66.43672288 -85.34223591 49.49643739 -71.49243164 36.03271484 C-56.97205209 22.49373243 -37.76643072 13.15965444 -18.984375 7.08984375 C-14.83611471 5.57496859 -11.1615801 3.43628244 -7.40234375 1.13671875 C-4.72312831 -0.13100758 -2.92756058 -0.22439413 0 0 Z " fill="#11213A" transform="translate(280,325)"/>
<path d="M0 0 C0.98742187 0.3403125 1.97484375 0.680625 2.9921875 1.03125 C18.60389413 6.91046776 30.87045636 17.94472003 38 33 C41.40147537 41.57584093 42.51878956 49.80665982 42.40966797 58.95947266 C42.38693158 61.44676746 42.38693158 61.44676746 43 65 C45.32806767 67.32309539 45.32806767 67.32309539 48 69 C51.95729668 75.03756744 50.19658434 82.88419806 48.875 89.5625 C47.07019663 96.7817135 44.12363725 102.51528855 38.25 107.1875 C35.40590667 109.47857518 34.87108444 111.51566223 34 115 C33.34 115 32.68 115 32 115 C31.690625 116.2065625 31.690625 116.2065625 31.375 117.4375 C25.32466627 133.11336467 11.76025311 144.22960898 -3.1640625 150.95703125 C-17.76106747 156.32535126 -32.93833251 155.46836705 -47 149 C-50.71634594 147.02333484 -53.81720968 144.74989148 -57 142 C-57.50772949 141.56187988 -58.01545898 141.12375977 -58.53857422 140.67236328 C-67.73110223 132.57126038 -73.46007168 123.84003291 -79 113 C-79.57492187 112.0615625 -80.14984375 111.123125 -80.7421875 110.15625 C-82 108 -82 108 -82 106 C-82.721875 105.855625 -83.44375 105.71125 -84.1875 105.5625 C-89.34826714 102.69540714 -91.17215441 97.48683496 -92.98046875 92.0546875 C-94.99097326 84.67339863 -96.94315261 77.1568564 -93.25 70.0625 C-91.08486344 67.11550857 -90.18456653 66.38488502 -87 65 C-87.02320313 63.9378125 -87.04640625 62.875625 -87.0703125 61.78125 C-87.28768154 47.86304461 -87.28768154 47.86304461 -85 41 C-84.76667969 40.1028125 -84.53335937 39.205625 -84.29296875 38.28125 C-80.07415638 23.33239888 -69.03941579 11.7998838 -55.75 4.1875 C-38.82526729 -4.25523209 -18.07301773 -6.68971403 0 0 Z " fill="#102139" transform="translate(344,167)"/>
<path d="M0 0 C0.5 2.5625 0.5 2.5625 0 6 C-3.31918581 9.88818909 -6.86223062 13.10899045 -12 14 C-2.16982302 26.67575453 13.94754335 35.78044044 29.90527344 37.80517578 C41.26976716 38.86215317 53.25877608 39.3039101 64 35 C64.73605469 34.7215625 65.47210938 34.443125 66.23046875 34.15625 C75.65273422 30.28728436 86.34680622 24.90555966 93 17 C93 16.01 93 15.02 93 14 C91.9275 13.443125 90.855 12.88625 89.75 12.3125 C86.34477786 10.34688397 84.02342851 8.45669037 82 5 C82.25 2.1875 82.25 2.1875 83 0 C88.72149621 0.49784448 92.83909477 2.11853516 97.875 4.8125 C102.73396525 7.35653583 107.605186 9.75613888 112.62988281 11.95727539 C137.52933542 22.91170082 137.52933542 22.91170082 146 30 C146.969375 30.78632813 147.93875 31.57265625 148.9375 32.3828125 C159.23336834 41.05556748 167.04485326 52.00744544 171 65 C171.52980469 66.72863281 171.52980469 66.72863281 172.0703125 68.4921875 C173.45317408 74.18694826 173.40726542 79.91808483 173.4375 85.75 C173.47037109 86.8534375 173.50324219 87.956875 173.53710938 89.09375 C173.59263716 97.69550916 172.08448138 106.24458075 166.30566406 112.97265625 C153.25281096 124.78875743 129.78838917 124.30214504 113.37817383 124.2746582 C111.64193505 124.27901533 109.90569818 124.28420178 108.16946411 124.29014587 C103.48940055 124.30344202 98.8094182 124.3041249 94.12933946 124.30158257 C90.2035587 124.30050609 86.27779393 124.30541363 82.35201663 124.310188 C73.078334 124.32125155 63.80469188 124.32173891 54.53100586 124.31567383 C45.00902688 124.30964141 35.48719594 124.32193374 25.96524221 124.3432439 C17.7507445 124.36094241 9.53629356 124.36684818 1.32177752 124.36360615 C-3.56690173 124.36180567 -8.45547545 124.36430428 -13.34413719 124.37832069 C-17.94817424 124.39102897 -22.55198317 124.38883408 -27.1560173 124.37590981 C-28.8303657 124.37357216 -30.50473081 124.37617552 -32.17905998 124.38453293 C-49.10965885 124.46284147 -71.63428985 124.19657613 -84.44921875 111.7265625 C-90.69483378 104.77300622 -91.33871062 97.33249797 -91.25 88.375 C-91.24250732 87.39096191 -91.23501465 86.40692383 -91.22729492 85.39306641 C-90.94700536 66.43672288 -85.34223591 49.49643739 -71.49243164 36.03271484 C-56.97205209 22.49373243 -37.76643072 13.15965444 -18.984375 7.08984375 C-14.83611471 5.57496859 -11.1615801 3.43628244 -7.40234375 1.13671875 C-4.72312831 -0.13100758 -2.92756058 -0.22439413 0 0 Z M-67.375 43.9375 C-78.67057466 55.79550991 -83.33912917 71.95462435 -83.4375 88 C-83.47037109 88.94617188 -83.50324219 89.89234375 -83.53710938 90.8671875 C-83.58778192 97.51911124 -82.29490169 101.86300715 -78 107 C-70.54243807 113.72999491 -58.68286911 114.4698924 -49.02807617 115.16870117 C-47.97058009 115.24833949 -46.91308401 115.32797781 -45.82354259 115.41002941 C-30.93052243 116.41029238 -16.00209687 116.31097123 -1.08292031 116.30158257 C2.35596194 116.3004943 5.7948265 116.30544195 9.23370486 116.310188 C17.35902379 116.32118232 25.48429643 116.32177653 33.60961914 116.31567383 C41.92072171 116.30962674 50.23165529 116.32198713 58.54272908 116.3432439 C65.75202067 116.36098711 72.96125906 116.36684189 80.17057163 116.36360615 C84.44440102 116.36181515 88.7181095 116.3642071 92.99191856 116.37832069 C127.84677667 118.36913287 127.84677667 118.36913287 159.5 107.625 C166.33586564 100.44734107 165.35811761 89.64911235 165.2109375 80.2890625 C164.65903451 64.81533785 157.42767654 51.94955351 146.48095703 41.37548828 C137.70298977 33.22265815 127.78612776 27.93134767 117 23 C115.24429688 22.18595703 115.24429688 22.18595703 113.453125 21.35546875 C108.32475974 18.80270741 108.32475974 18.80270741 102.796875 18.22265625 C100.3666802 19.27397965 99.32110319 21.09300903 97.71484375 23.12890625 C90.15586565 31.37662951 80.04242465 36.47227292 70 41 C69.26007813 41.33902344 68.52015625 41.67804688 67.7578125 42.02734375 C50.80211708 49.09807981 29.00766403 47.88058611 12.13330078 41.26855469 C0.40631909 36.3422929 -8.79933246 28.72021705 -17.34375 19.43359375 C-27.06786386 11.01673105 -60.57818095 37.56387912 -67.375 43.9375 Z " fill="#F1F2F6" transform="translate(280,325)"/>
<path d="M0 0 C0.98742187 0.3403125 1.97484375 0.680625 2.9921875 1.03125 C18.60389413 6.91046776 30.87045636 17.94472003 38 33 C41.40147537 41.57584093 42.51878956 49.80665982 42.40966797 58.95947266 C42.38693158 61.44676746 42.38693158 61.44676746 43 65 C45.32806767 67.32309539 45.32806767 67.32309539 48 69 C51.95729668 75.03756744 50.19658434 82.88419806 48.875 89.5625 C47.07019663 96.7817135 44.12363725 102.51528855 38.25 107.1875 C35.40590667 109.47857518 34.87108444 111.51566223 34 115 C33.34 115 32.68 115 32 115 C31.690625 116.2065625 31.690625 116.2065625 31.375 117.4375 C25.32466627 133.11336467 11.76025311 144.22960898 -3.1640625 150.95703125 C-17.76106747 156.32535126 -32.93833251 155.46836705 -47 149 C-50.71634594 147.02333484 -53.81720968 144.74989148 -57 142 C-57.50772949 141.56187988 -58.01545898 141.12375977 -58.53857422 140.67236328 C-67.73110223 132.57126038 -73.46007168 123.84003291 -79 113 C-79.57492187 112.0615625 -80.14984375 111.123125 -80.7421875 110.15625 C-82 108 -82 108 -82 106 C-82.721875 105.855625 -83.44375 105.71125 -84.1875 105.5625 C-89.34826714 102.69540714 -91.17215441 97.48683496 -92.98046875 92.0546875 C-94.99097326 84.67339863 -96.94315261 77.1568564 -93.25 70.0625 C-91.08486344 67.11550857 -90.18456653 66.38488502 -87 65 C-87.02320313 63.9378125 -87.04640625 62.875625 -87.0703125 61.78125 C-87.28768154 47.86304461 -87.28768154 47.86304461 -85 41 C-84.76667969 40.1028125 -84.53335937 39.205625 -84.29296875 38.28125 C-80.07415638 23.33239888 -69.03941579 11.7998838 -55.75 4.1875 C-38.82526729 -4.25523209 -18.07301773 -6.68971403 0 0 Z M-66 23 C-66.58652344 23.5878125 -67.17304688 24.175625 -67.77734375 24.78125 C-77.46592721 35.23407287 -79.35026527 47.3299828 -79.125 61.0625 C-79.11146484 62.64708008 -79.11146484 62.64708008 -79.09765625 64.26367188 C-79.0743167 66.84269253 -79.04157775 69.4212199 -79 72 C-79.78375 71.95875 -80.5675 71.9175 -81.375 71.875 C-84.16116119 71.71271266 -84.16116119 71.71271266 -86 74 C-86.99835984 81.98687869 -86.53655129 90.15069707 -82 97 C-80.20987067 98.42836662 -80.20987067 98.42836662 -78.1875 99.625 C-73.11140924 102.90565866 -71.73723292 107.57181297 -69.57495117 112.96313477 C-67.20418129 118.79281954 -64.28644972 123.35634614 -60 128 C-59.20335937 128.91458984 -59.20335937 128.91458984 -58.390625 129.84765625 C-50.06168085 138.87067908 -38.75445893 145.14495851 -26.48046875 146.34375 C-12.86210395 146.69785699 -0.71408631 142.41956288 9.83984375 133.63671875 C18.00221483 125.744381 23.14973458 117.3172895 27.5534668 106.96411133 C28.29384454 105.27445347 29.14021368 103.63213675 30 102 C30.99 101.67 31.98 101.34 33 101 C33 100.34 33 99.68 33 99 C33.61359375 98.77054687 34.2271875 98.54109375 34.859375 98.3046875 C38.39904 96.14730044 38.96782084 92.96598277 40.2421875 89.16796875 C41.44275286 84.14911045 41.70660752 79.11879632 41 74 C39.16116119 71.71271266 39.16116119 71.71271266 36.375 71.875 C35.59125 71.91625 34.8075 71.9575 34 72 C34.01571045 71.43192627 34.0314209 70.86385254 34.04760742 70.27856445 C34.50956106 50.99541112 33.10495679 35.68318047 19.5625 20.75 C7.17351057 9.07539843 -9.43779609 4.46025093 -26.17089844 4.64794922 C-42.0765935 5.20855344 -54.94945973 11.77154406 -66 23 Z " fill="#EEF1F4" transform="translate(344,167)"/>
<path d="M0 0 C0.33 0 0.66 0 1 0 C1.03867187 1.32064453 1.03867187 1.32064453 1.078125 2.66796875 C1.13484375 3.82941406 1.1915625 4.99085938 1.25 6.1875 C1.29640625 7.33605469 1.3428125 8.48460937 1.390625 9.66796875 C2.08826 13.48260114 3.37251591 15.20961189 6 18 C6.66 17.34 7.32 16.68 8 16 C8 18.31 8 20.62 8 23 C6.02 23.66 4.04 24.32 2 25 C1.5128256 33.63381302 2.07889893 40.23653483 6 48 C6.33 48.66 6.66 49.32 7 50 C1.25 48.125 1.25 48.125 -1 47 C-0.67 48.32 -0.34 49.64 0 51 C-0.99 51.495 -0.99 51.495 -2 52 C-6.56000504 43.79199093 -9.44234225 34.49835138 -8 25 C-6.30074912 20.41027081 -4.48369424 18.24184712 0 16 C0 10.72 0 5.44 0 0 Z " fill="#ECEFF2" transform="translate(257,216)"/>
<path d="M0 0 C1.14275391 0.00902344 2.28550781 0.01804688 3.46289062 0.02734375 C6.2463231 0.05063607 9.02929229 0.08334001 11.8125 0.125 C11.4825 2.435 11.1525 4.745 10.8125 7.125 C10.12325439 7.13958252 9.43400879 7.15416504 8.72387695 7.16918945 C-9.46463488 7.4359502 -9.46463488 7.4359502 -27.1875 11.125 C-27.5175 10.465 -27.8475 9.805 -28.1875 9.125 C-27.5275 8.795 -26.8675 8.465 -26.1875 8.125 C-25.81440101 6.46678227 -25.48049023 4.79922986 -25.1875 3.125 C-20.1985392 -1.8639608 -6.46047934 -0.09840215 0 0 Z " fill="#F7F7FA" transform="translate(326.1875,164.875)"/>
<path d="M0 0 C9.16116537 4.27400825 15.86988761 10.00676585 23 17 C22.34 17.66 21.68 18.32 21 19 C20.01 18.67 19.02 18.34 18 18 C18.66 18.99 19.32 19.98 20 21 C20 21.99 20 22.98 20 24 C20.66 24 21.32 24 22 24 C21.34 25.32 20.68 26.64 20 28 C19.41605469 27.27296875 19.41605469 27.27296875 18.8203125 26.53125 C12.37772177 18.81201687 4.91989975 12.65386074 -4 8 C-2.68 7.67 -1.36 7.34 0 7 C-0.185625 6.030625 -0.37125 5.06125 -0.5625 4.0625 C-0.706875 3.051875 -0.85125 2.04125 -1 1 C-0.67 0.67 -0.34 0.34 0 0 Z " fill="#EDEEF1" transform="translate(413,347)"/>
<path d="M0 0 C1.32 0.66 2.64 1.32 4 2 C4.66 1.34 5.32 0.68 6 0 C7.18464739 3.77084944 6.4962651 6.27969188 5.53515625 10.0859375 C4.71999026 14.52472454 4.61217911 18.99586201 4.51806641 23.50292969 C4.32539764 28.58104019 4.32539764 28.58104019 2.46484375 30.9765625 C1.98144531 31.31429687 1.49804688 31.65203125 1 32 C0.525625 31.175 0.05125 30.35 -0.4375 29.5 C-0.953125 28.675 -1.46875 27.85 -2 27 C-2.33 27 -2.66 27 -3 27 C-3.08797281 23.81267746 -3.14071341 20.62567212 -3.1875 17.4375 C-3.21263672 16.54224609 -3.23777344 15.64699219 -3.26367188 14.72460938 C-3.32655603 9.00215108 -2.65798531 5.08575141 0 0 Z " fill="#F6F8F9" transform="translate(261,203)"/>
<path d="M0 0 C2.2109885 0.42793326 3.98119242 0.99059621 6 2 C6 5.63 6 9.26 6 13 C8.475 13.99 8.475 13.99 11 15 C13.3299298 17.3299298 13.96176038 18.43915227 14.1875 21.75 C14.125625 22.4925 14.06375 23.235 14 24 C6.25 23.25 6.25 23.25 4 21 C1.42938689 20.35232207 1.42938689 20.35232207 -1 20 C-1.02888514 16.85418577 -1.04675923 13.70840531 -1.0625 10.5625 C-1.07087891 9.66466797 -1.07925781 8.76683594 -1.08789062 7.84179688 C-1.09111328 6.98779297 -1.09433594 6.13378906 -1.09765625 5.25390625 C-1.10551147 4.06776733 -1.10551147 4.06776733 -1.11352539 2.85766602 C-1 1 -1 1 0 0 Z " fill="#F5F7F9" transform="translate(379,219)"/>
<path d="M0 0 C2.9375 0.375 2.9375 0.375 6 1 C7.46343456 3.92686912 7.1704426 6.55453613 7.1875 9.8125 C7.20167969 11.03582031 7.21585937 12.25914062 7.23046875 13.51953125 C7.00886273 16.86615771 6.64070615 19.08679899 5 22 C1.875 22.8125 1.875 22.8125 -1 23 C-1.1567564 15.28410183 -0.67453101 7.68483539 0 0 Z " fill="#F9F8FC" transform="translate(446,403)"/>
<path d="M0 0 C1.02158203 0.00322266 2.04316406 0.00644531 3.09570312 0.00976562 C4.15080078 0.01814453 5.20589844 0.02652344 6.29296875 0.03515625 C7.36740234 0.03966797 8.44183594 0.04417969 9.54882812 0.04882812 C12.19276558 0.06057896 14.83658827 0.07700838 17.48046875 0.09765625 C17.48046875 0.42765625 17.48046875 0.75765625 17.48046875 1.09765625 C16.23652344 1.14664063 14.99257813 1.195625 13.7109375 1.24609375 C4.8310554 1.63233071 -3.82645134 2.08555011 -12.51953125 4.09765625 C-12.80828125 5.02578125 -13.09703125 5.95390625 -13.39453125 6.91015625 C-14.60005512 10.3258072 -15.42500937 12.50693054 -18.68359375 14.265625 C-19.49570312 14.60207031 -20.3078125 14.93851563 -21.14453125 15.28515625 C-21.96179688 15.62933594 -22.7790625 15.97351563 -23.62109375 16.328125 C-24.24757813 16.58207031 -24.8740625 16.83601563 -25.51953125 17.09765625 C-25.64328125 16.45828125 -25.76703125 15.81890625 -25.89453125 15.16015625 C-26.10078125 14.47953125 -26.30703125 13.79890625 -26.51953125 13.09765625 C-27.17953125 12.76765625 -27.83953125 12.43765625 -28.51953125 12.09765625 C-23.92619972 4.78235047 -16.32893929 2.46876096 -8.16723633 0.54248047 C-5.39053986 0.07598522 -2.81427808 -0.01572222 0 0 Z " fill="#E5E8ED" transform="translate(314.51953125,163.90234375)"/>
<path d="M0 0 C7.16707877 0.32577631 12.76927124 3.65443628 19 7 C16.2734375 10.90625 16.2734375 10.90625 13.8125 11.75 C12.9153125 11.87375 12.9153125 11.87375 12 12 C11.67 13.32 11.34 14.64 11 16 C10.608125 15.566875 10.21625 15.13375 9.8125 14.6875 C8.01811244 12.88495519 8.01811244 12.88495519 5.5625 11.625 C2.57274646 9.72905873 0.86413403 8.01129344 -1 5 C-0.75 2.1875 -0.75 2.1875 0 0 Z " fill="#E3E9EE" transform="translate(363,325)"/>
<path d="M0 0 C-0.99 1.485 -0.99 1.485 -2 3 C-2.66 3 -3.32 3 -4 3 C-4 3.99 -4 4.98 -4 6 C-4.66 6 -5.32 6 -6 6 C-6 6.66 -6 7.32 -6 8 C-9.21451269 9.60725635 -12.43612536 9.05748185 -16 9 C-16 8.34 -16 7.68 -16 7 C-16.66 7 -17.32 7 -18 7 C-18 6.34 -18 5.68 -18 5 C-18.99 5 -19.98 5 -21 5 C-21 4.34 -21 3.68 -21 3 C-23.31 3 -25.62 3 -28 3 C-28 2.67 -28 2.34 -28 2 C-23.70948619 1.46935694 -19.41745969 0.95214569 -15.125 0.4375 C-13.90167969 0.28603516 -12.67835938 0.13457031 -11.41796875 -0.02148438 C-10.25136719 -0.16005859 -9.08476562 -0.29863281 -7.8828125 -0.44140625 C-6.80402832 -0.57232666 -5.72524414 -0.70324707 -4.61376953 -0.83813477 C-2 -1 -2 -1 0 0 Z " fill="#F9F9FA" transform="translate(432,438)"/>
<path d="M0 0 C2.75390625 -0.296875 2.75390625 -0.296875 6 0 C8.15234375 2.046875 8.15234375 2.046875 9.9375 4.75 C10.54464844 5.63171875 11.15179688 6.5134375 11.77734375 7.421875 C13 10 13 10 12.6640625 12.1875 C12.44492187 12.785625 12.22578125 13.38375 12 14 C12.37907282 16.18703385 12.37907282 16.18703385 13 18 C12.34 18 11.68 18 11 18 C10.34 19.32 9.68 20.64 9 22 C7.9615789 20.28133783 6.94485365 18.54955402 5.9375 16.8125 C5.36902344 15.84957031 4.80054688 14.88664062 4.21484375 13.89453125 C2.86184826 10.67083459 2.95230482 9.27479579 4 6 C3.34 6 2.68 6 2 6 C1.34 4.02 0.68 2.04 0 0 Z " fill="#F1F0F5" transform="translate(431,365)"/>
<path d="M0 0 C0.33 0 0.66 0 1 0 C1.03867187 1.32064453 1.03867187 1.32064453 1.078125 2.66796875 C1.13484375 3.82941406 1.1915625 4.99085938 1.25 6.1875 C1.29640625 7.33605469 1.3428125 8.48460937 1.390625 9.66796875 C2.08826 13.48260114 3.37251591 15.20961189 6 18 C6.66 17.34 7.32 16.68 8 16 C8 18.31 8 20.62 8 23 C6.02 23.66 4.04 24.32 2 25 C1.67 27.97 1.34 30.94 1 34 C0.67 34 0.34 34 0 34 C-0.45572917 32.01432292 -0.91145833 30.02864583 -1.3671875 28.04296875 C-1.98007723 25.72257026 -1.98007723 25.72257026 -4 23 C-4.99 23.33 -5.98 23.66 -7 24 C-5.82744291 20.66272214 -4.81131596 18.22562513 -2 16 C-1.34 16 -0.68 16 0 16 C0 10.72 0 5.44 0 0 Z " fill="#E1E6EB" transform="translate(257,216)"/>
<path d="M0 0 C0.99 0.33 1.98 0.66 3 1 C3 1.99 3 2.98 3 4 C4.98 3.34 6.96 2.68 9 2 C7.61811547 5.21043882 6.07578097 7.04936365 3.375 9.25 C2.74335938 9.77078125 2.11171875 10.2915625 1.4609375 10.828125 C0.97882813 11.21484375 0.49671875 11.6015625 0 12 C-0.66 11.67 -1.32 11.34 -2 11 C-1.67 9.68 -1.34 8.36 -1 7 C-5.41522109 8.26974972 -5.41522109 8.26974972 -9 11 C-9.66 10.34 -10.32 9.68 -11 9 C-10.45730469 8.60167969 -9.91460937 8.20335937 -9.35546875 7.79296875 C-8.64003906 7.26316406 -7.92460937 6.73335938 -7.1875 6.1875 C-6.47980469 5.66542969 -5.77210938 5.14335937 -5.04296875 4.60546875 C-3.21468607 3.16871123 -1.60103312 1.68184237 0 0 Z " fill="#E8EBEF" transform="translate(357,296)"/>
<path d="M0 0 C0.66 0.33 1.32 0.66 2 1 C3.28571429 7.42857143 3.28571429 7.42857143 2 10 C1.34 10 0.68 10 0 10 C-0.17015625 10.62648438 -0.3403125 11.25296875 -0.515625 11.8984375 C-0.75796875 12.71570313 -1.0003125 13.53296875 -1.25 14.375 C-1.48203125 15.18710937 -1.7140625 15.99921875 -1.953125 16.8359375 C-3.2214892 19.45785454 -4.32423308 19.99382318 -7 21 C-7 18 -7 18 -6 16 C-5.34 16 -4.68 16 -4 16 C-4.185625 15.29875 -4.37125 14.5975 -4.5625 13.875 C-5.21442175 9.59094277 -4.35736649 6.07209946 -3 2 C-2.01 2 -1.02 2 0 2 C0 1.34 0 0.68 0 0 Z " fill="#F6F7F9" transform="translate(374,271)"/>
<path d="M0 0 C0.33 0 0.66 0 1 0 C1 2.64 1 5.28 1 8 C2.98 7.67 4.96 7.34 7 7 C7.33 5.35 7.66 3.7 8 2 C9.53590512 5.91043327 8.40138363 8.30229739 6.8125 12.0625 C6.38582031 13.10535156 5.95914062 14.14820313 5.51953125 15.22265625 C3.97123654 18.0525728 2.71143919 19.32204298 0 21 C-0.95024979 17.30458414 -0.95024979 14.69541586 0 11 C-0.99 11.495 -0.99 11.495 -2 12 C-1.34 8.04 -0.68 4.08 0 0 Z " fill="#E3E4EB" transform="translate(444,418)"/>
<path d="M0 0 C0 0.66 0 1.32 0 2 C-0.99 2.495 -0.99 2.495 -2 3 C-2.65555119 5.52733235 -2.65555119 5.52733235 -3 8 C-4.546875 7.9690625 -4.546875 7.9690625 -6.125 7.9375 C-9.89281991 7.86695566 -9.89281991 7.86695566 -13.0625 8.6875 C-16.84885258 9.09030347 -18.78335088 7.9146721 -22 6 C-22 5.67 -22 5.34 -22 5 C-21.2265625 4.89042969 -20.453125 4.78085937 -19.65625 4.66796875 C-13.4274754 3.71977658 -6.00893084 0 0 0 Z " fill="#1E2A41" transform="translate(352,366)"/>
<path d="M0 0 C2.62531524 0.16713569 2.62531524 0.16713569 5 0 C5.33 -0.66 5.66 -1.32 6 -2 C8.4375 -1.625 8.4375 -1.625 11 -1 C11.495 -0.01 11.495 -0.01 12 1 C11.34 1 10.68 1 10 1 C10 1.66 10 2.32 10 3 C10.66 3.33 11.32 3.66 12 4 C8.74265097 5.09277335 7.07141019 4.90981288 3.91015625 3.63671875 C-1.21419105 1.79136556 -6.15784769 1.24471357 -11.5625 0.8125 C-12.47580078 0.73064453 -13.38910156 0.64878906 -14.33007812 0.56445312 C-16.55273313 0.36662519 -18.77573555 0.17864676 -21 0 C-21 -0.33 -21 -0.66 -21 -1 C-4.36363636 -2.90909091 -4.36363636 -2.90909091 0 0 Z " fill="#222D44" transform="translate(339,164)"/>
<path d="M0 0 C0.928125 0.33 1.85625 0.66 2.8125 1 C5.92029291 2.14967004 5.92029291 2.14967004 9 2 C9.33 2.66 9.66 3.32 10 4 C9.34 4.66 8.68 5.32 8 6 C8.25561323 8.3431213 8.59270772 10.67843403 9 13 C9 13.99 9 14.98 9 16 C8.484375 15.319375 7.96875 14.63875 7.4375 13.9375 C4.49928587 10.39657527 1.29212981 7.20890181 -2 4 C-1 1 -1 1 0 0 Z " fill="#E9EBEE" transform="translate(362,182)"/>
<path d="M0 0 C0.66 0.33 1.32 0.66 2 1 C2 2.32 2 3.64 2 5 C2.66 4.67 3.32 4.34 4 4 C4 9.28 4 14.56 4 20 C3.01 20 2.02 20 1 20 C0.67 21.98 0.34 23.96 0 26 C-0.33 26 -0.66 26 -1 26 C-1.02907084 22.41668375 -1.04682263 18.83339792 -1.0625 15.25 C-1.07087891 14.23421875 -1.07925781 13.2184375 -1.08789062 12.171875 C-1.09111328 11.1921875 -1.09433594 10.2125 -1.09765625 9.203125 C-1.10289307 8.30239258 -1.10812988 7.40166016 -1.11352539 6.47363281 C-1.00762312 4.16610196 -0.65132813 2.20865595 0 0 Z " fill="#2E3B51" transform="translate(266,212)"/>
<path d="M0 0 C0.66 0.66 1.32 1.32 2 2 C1.8125 5.5 1.8125 5.5 1 9 C-2.20380017 11.13586678 -3.01939967 11.23132175 -6.6875 11.125 C-7.89986328 11.09792969 -7.89986328 11.09792969 -9.13671875 11.0703125 C-10.05904297 11.03550781 -10.05904297 11.03550781 -11 11 C-7.33333333 7.33333333 -3.66666667 3.66666667 0 0 Z " fill="#1B263E" transform="translate(365,300)"/>
<path d="M0 0 C0 0.66 0 1.32 0 2 C-2.64 2 -5.28 2 -8 2 C-8 2.66 -8 3.32 -8 4 C-7.01 3.67 -6.02 3.34 -5 3 C-5 3.66 -5 4.32 -5 5 C-3.37373596 6.38232443 -1.7074998 7.71937515 0 9 C-2.64 9 -5.28 9 -8 9 C-8 8.34 -8 7.68 -8 7 C-8.66 7 -9.32 7 -10 7 C-10 6.34 -10 5.68 -10 5 C-10.99 5 -11.98 5 -13 5 C-13 4.34 -13 3.68 -13 3 C-15.31 3 -17.62 3 -20 3 C-20 2.67 -20 2.34 -20 2 C-17.41703099 1.66361334 -14.83368737 1.3307835 -12.25 1 C-11.15558594 0.85691406 -11.15558594 0.85691406 -10.0390625 0.7109375 C-6.65143196 0.27978452 -3.42145141 0 0 0 Z " fill="#E4E6ED" transform="translate(424,438)"/>
<path d="M0 0 C0.99 0 1.98 0 3 0 C2.67 1.32 2.34 2.64 2 4 C2.66 4.33 3.32 4.66 4 5 C1.8125 7.0625 1.8125 7.0625 -1 9 C-4.42333251 8.84077523 -5.5631237 8.4368763 -8 6 C-7.67 5.01 -7.34 4.02 -7 3 C-4 1.875 -4 1.875 -1 1 C-0.67 0.67 -0.34 0.34 0 0 Z " fill="#F0F4F6" transform="translate(353,303)"/>
<path d="M0 0 C1.98 1.65 3.96 3.3 6 5 C5.34 5.66 4.68 6.32 4 7 C3.01 6.67 2.02 6.34 1 6 C1.99 7.485 1.99 7.485 3 9 C3 9.99 3 10.98 3 12 C3.66 12 4.32 12 5 12 C4.34 13.32 3.68 14.64 3 16 C1.82739389 14.71372289 0.6620717 13.42080217 -0.5 12.125 C-1.1496875 11.40570313 -1.799375 10.68640625 -2.46875 9.9453125 C-4 8 -4 8 -4 6 C-3 5 -2 4 -1 3 C-0.67 2.01 -0.34 1.02 0 0 Z " fill="#E6E6ED" transform="translate(430,359)"/>
<path d="M0 0 C0.66 0.33 1.32 0.66 2 1 C2 2.32 2 3.64 2 5 C2.66 5 3.32 5 4 5 C4 5.66 4 6.32 4 7 C4.66 7.33 5.32 7.66 6 8 C5.38125 8.5775 4.7625 9.155 4.125 9.75 C1.71889788 12.08052993 1.71889788 12.08052993 0 16 C-0.66 12.7 -1.32 9.4 -2 6 C-2.33 6.33 -2.66 6.66 -3 7 C-3.66 7 -4.32 7 -5 7 C-4.34 5.35 -3.68 3.7 -3 2 C-2.01 2 -1.02 2 0 2 C0 1.34 0 0.68 0 0 Z " fill="#E3E6EB" transform="translate(377,266)"/>
<path d="M0 0 C5.75 1.75 5.75 1.75 8 4 C5.82575883 6.50037734 4.26954202 7.43628586 1 8 C0.67 9.32 0.34 10.64 0 12 C-2 10 -4 8 -6 6 C-4.35 5.67 -2.7 5.34 -1 5 C-1.33 4.01 -1.66 3.02 -2 2 C-1.34 2 -0.68 2 0 2 C0 1.34 0 0.68 0 0 Z " fill="#E1E5E8" transform="translate(374,329)"/>
<path d="M0 0 C2 3 2 3 2.5 5.125 C2.665 5.74375 2.83 6.3625 3 7 C3.66 7.33 4.32 7.66 5 8 C5 8.99 5 9.98 5 11 C4.34 11 3.68 11 3 11 C2.9175 11.61875 2.835 12.2375 2.75 12.875 C2 15 2 15 -2 17 C-1.34 11.39 -0.68 5.78 0 0 Z " fill="#1A2A3F" transform="translate(394,241)"/>
<path d="M0 0 C0.99 0.33 1.98 0.66 3 1 C1.58791833 2.60820412 0.17013964 4.21140708 -1.25 5.8125 C-2.03890625 6.70582031 -2.8278125 7.59914063 -3.640625 8.51953125 C-5.65879445 10.64128225 -7.59916705 12.34254423 -10 14 C-10.33 13.01 -10.66 12.02 -11 11 C-10.01 10.67 -9.02 10.34 -8 10 C-7.731875 9.2575 -7.46375 8.515 -7.1875 7.75 C-5.51226947 3.87051878 -3.46654081 2.40535485 0 0 Z " fill="#1E2C3F" transform="translate(360,289)"/>
<path d="M0 0 C4.455 0.99 4.455 0.99 9 2 C6.02551753 4.97448247 3.85803457 6.42529201 0 8 C-2.375 7.6875 -2.375 7.6875 -4 7 C-4 6.34 -4 5.68 -4 5 C-3.01 5 -2.02 5 -1 5 C-1.33 4.01 -1.66 3.02 -2 2 C-1.34 2 -0.68 2 0 2 C0 1.34 0 0.68 0 0 Z " fill="#1A273B" transform="translate(236,336)"/>
<path d="M0 0 C2.33523916 3.50285874 2.18495942 4.65629938 1.9765625 8.76171875 C1.925 9.87998047 1.8734375 10.99824219 1.8203125 12.15039062 C1.75585938 13.31763672 1.69140625 14.48488281 1.625 15.6875 C1.56828125 16.86634766 1.5115625 18.04519531 1.453125 19.25976562 C1.31155328 22.17378352 1.16013058 25.08695257 1 28 C0.67 28 0.34 28 0 28 C-0.39400151 24.08500092 -0.76189243 20.16797553 -1.125 16.25 C-1.23714844 15.13882812 -1.34929687 14.02765625 -1.46484375 12.8828125 C-1.56152344 11.81289063 -1.65820312 10.74296875 -1.7578125 9.640625 C-1.8520752 8.65610352 -1.94633789 7.67158203 -2.04345703 6.65722656 C-1.99742021 3.84225578 -1.46133837 2.37159965 0 0 Z " fill="#32394B" transform="translate(188,394)"/>
<path d="M0 0 C0.33 0.66 0.66 1.32 1 2 C0.34 2.66 -0.32 3.32 -1 4 C-1 3.34 -1 2.68 -1 2 C-2.70840281 3.63412443 -3.93453047 4.86906094 -5 7 C-8.465 5.02 -8.465 5.02 -12 3 C-8.06286367 -0.23407627 -4.99388913 -1.89423381 0 0 Z " fill="#222D44" transform="translate(262,344)"/>
<path d="M0 0 C1.32 0 2.64 0 4 0 C4.33 2.31 4.66 4.62 5 7 C3.741875 6.87625 2.48375 6.7525 1.1875 6.625 C0.12595703 6.52058594 0.12595703 6.52058594 -0.95703125 6.4140625 C-3 6 -3 6 -6 4 C-6 3.34 -6 2.68 -6 2 C-3.525 2.495 -3.525 2.495 -1 3 C-0.67 2.01 -0.34 1.02 0 0 Z " fill="#FAF7FA" transform="translate(380,333)"/>
<path d="M0 0 C1.65 0 3.3 0 5 0 C5 0.99 5 1.98 5 3 C6.98 2.67 8.96 2.34 11 2 C11 2.66 11 3.32 11 4 C13.31 4.33 15.62 4.66 18 5 C18 5.66 18 6.32 18 7 C11.65411291 6.70620893 6.33666392 5.60769372 1 2 C0.67 1.34 0.34 0.68 0 0 Z " fill="#353D4D" transform="translate(202,431)"/>
<path d="M0 0 C0.33 0.66 0.66 1.32 1 2 C1.66 2 2.32 2 3 2 C3.25 4.25 3.25 4.25 3 7 C1.125 9.1875 1.125 9.1875 -1 11 C-1.66 11.66 -2.32 12.32 -3 13 C-3.93045933 10.44855176 -4.08564091 9.25993522 -3.22265625 6.640625 C-2.83980469 5.85171875 -2.45695313 5.0628125 -2.0625 4.25 C-1.68222656 3.45078125 -1.30195313 2.6515625 -0.91015625 1.828125 C-0.60980469 1.22484375 -0.30945313 0.6215625 0 0 Z " fill="#E6E8EF" transform="translate(196,378)"/>
<path d="M0 0 C-4.58114465 2.54508036 -8.8880429 3.12952121 -14.08203125 3.09765625 C-15.01337891 3.09443359 -15.94472656 3.09121094 -16.90429688 3.08789062 C-17.86400391 3.07951172 -18.82371094 3.07113281 -19.8125 3.0625 C-21.28106445 3.05573242 -21.28106445 3.05573242 -22.77929688 3.04882812 C-25.18626111 3.03708684 -27.59309857 3.02066419 -30 3 C-30 2.67 -30 2.34 -30 2 C-28.42412109 1.92652344 -28.42412109 1.92652344 -26.81640625 1.8515625 C-17.73870157 1.45211333 -17.73870157 1.45211333 -8.8125 -0.125 C-5.27992093 -0.93575585 -3.39758362 -1.09599472 0 0 Z " fill="#363F4C" transform="translate(342,361)"/>
<path d="M0 0 C1.125 4.75 1.125 4.75 0 7 C-1.65 7 -3.3 7 -5 7 C-5.33 6.01 -5.66 5.02 -6 4 C-7.49985609 2.33289654 -7.49985609 2.33289654 -9 1 C-6.04335481 -0.4783226 -3.25770263 -0.06032783 0 0 Z " fill="#FAF9FA" transform="translate(413,347)"/>
<path d="M0 0 C2.63804589 -0.39397335 2.63804589 -0.39397335 5 -1 C5 -0.01 5 0.98 5 2 C5.66 2.33 6.32 2.66 7 3 C7 3.66 7 4.32 7 5 C0.73 3.68 -5.54 2.36 -12 1 C-12 0.67 -12 0.34 -12 0 C-10.56359829 -0.19573608 -9.12580496 -0.38127816 -7.6875 -0.5625 C-6.88699219 -0.66691406 -6.08648437 -0.77132812 -5.26171875 -0.87890625 C-3 -1 -3 -1 0 0 Z " fill="#D8DEE5" transform="translate(340,172)"/>
<path d="M0 0 C6.6 0 13.2 0 20 0 C20 0.33 20 0.66 20 1 C13.565 1.495 13.565 1.495 7 2 C7 2.66 7 3.32 7 4 C4.125 4.125 4.125 4.125 1 4 C0.34 3.34 -0.32 2.68 -1 2 C-0.67 1.34 -0.34 0.68 0 0 Z " fill="#E1E6E8" transform="translate(225,440)"/>
<path d="M0 0 C1.32 1.65 2.64 3.3 4 5 C3.34 6.32 2.68 7.64 2 9 C1.34 8.67 0.68 8.34 0 8 C-0.99 8.33 -1.98 8.66 -3 9 C-3.33 7.02 -3.66 5.04 -4 3 C-2.68 2.01 -1.36 1.02 0 0 Z " fill="#F6F6F8" transform="translate(209,363)"/>
<path d="M0 0 C2.31 0.33 4.62 0.66 7 1 C7 5 7 5 5 8 C2.525 7.01 2.525 7.01 0 6 C0 4.02 0 2.04 0 0 Z " fill="#F8FAFA" transform="translate(367,328)"/>
<path d="M0 0 C0.33 0.66 0.66 1.32 1 2 C1.66 2 2.32 2 3 2 C1.72278474 6.99275057 -0.17330957 9.57611908 -4 13 C-4.33 12.34 -4.66 11.68 -5 11 C-4.0625 8.375 -4.0625 8.375 -3 6 C-2.34 6 -1.68 6 -1 6 C-0.67 4.02 -0.34 2.04 0 0 Z " fill="#253142" transform="translate(379,276)"/>
<path d="M0 0 C0.66 0.99 1.32 1.98 2 3 C2.66 2.34 3.32 1.68 4 1 C3.69404824 4.56943715 2.97575359 6.03014419 0.6875 8.875 C-2 11 -2 11 -4.3125 10.8125 C-4.869375 10.544375 -5.42625 10.27625 -6 10 C-5.195625 9.278125 -4.39125 8.55625 -3.5625 7.8125 C-0.97707928 4.97484311 -0.31957187 3.72833853 0 0 Z " fill="#2D3B4C" transform="translate(280,326)"/>
<path d="M0 0 C0.33 0 0.66 0 1 0 C0.98839844 0.92683594 0.97679687 1.85367188 0.96484375 2.80859375 C0.95582031 4.00613281 0.94679688 5.20367187 0.9375 6.4375 C0.92589844 7.63246094 0.91429687 8.82742187 0.90234375 10.05859375 C0.66098208 12.88873341 0.66098208 12.88873341 2 14 C2.04080783 15.99958364 2.04254356 18.00045254 2 20 C1.01 19.67 0.02 19.34 -1 19 C-1.02705308 16.58325776 -1.04686438 14.1668206 -1.0625 11.75 C-1.07087891 11.06808594 -1.07925781 10.38617188 -1.08789062 9.68359375 C-1.10428392 6.30657446 -1.05628768 3.22708361 0 0 Z " fill="#1F2B38" transform="translate(387,213)"/>
<path d="M0 0 C0.66 0 1.32 0 2 0 C2.67154933 1.28913487 3.33708859 2.58140204 4 3.875 C4.37125 4.59429687 4.7425 5.31359375 5.125 6.0546875 C6 8 6 8 6 10 C5.01 10 4.02 10 3 10 C3 9.34 3 8.68 3 8 C2.34 8 1.68 8 1 8 C0.34 5.69 -0.32 3.38 -1 1 C-0.67 0.67 -0.34 0.34 0 0 Z " fill="#E0E5EB" transform="translate(443,376)"/>
<path d="M0 0 C3.3 0.33 6.6 0.66 10 1 C9.01 1.495 9.01 1.495 8 2 C8 2.66 8 3.32 8 4 C5.125 4.625 5.125 4.625 2 5 C1.34 4.34 0.68 3.68 0 3 C0 2.01 0 1.02 0 0 Z " fill="#1D273A" transform="translate(296,369)"/>
<path d="M0 0 C0.33 0.66 0.66 1.32 1 2 C0.01 3.485 0.01 3.485 -1 5 C-0.67 5.66 -0.34 6.32 0 7 C-2.97 7 -5.94 7 -9 7 C-8 4 -8 4 -6.15234375 2.83203125 C-5.42144531 2.49558594 -4.69054687 2.15914063 -3.9375 1.8125 C-3.20402344 1.46832031 -2.47054687 1.12414062 -1.71484375 0.76953125 C-1.14894531 0.51558594 -0.58304688 0.26164062 0 0 Z " fill="#222D40" transform="translate(237,352)"/>
<path d="M0 0 C1.65 0 3.3 0 5 0 C6.0625 1.8125 6.0625 1.8125 7 4 C6.0022242 6.99332739 5.2477975 7.94766315 3 10 C3.33 8.68 3.66 7.36 4 6 C3.34 6 2.68 6 2 6 C1.34 4.02 0.68 2.04 0 0 Z " fill="#FCFAF8" transform="translate(431,365)"/>
<path d="M0 0 C0.33 0 0.66 0 1 0 C1.34833144 4.87664009 0.41685712 7.77050005 -2 12 C-2.33 11.34 -2.66 10.68 -3 10 C-3.99 10.33 -4.98 10.66 -6 11 C-5.690625 10.401875 -5.38125 9.80375 -5.0625 9.1875 C-3.89790296 6.91043228 -3.89790296 6.91043228 -3 4 C-2.34 4.33 -1.68 4.66 -1 5 C-0.67 3.35 -0.34 1.7 0 0 Z " fill="#1D293E" transform="translate(198,368)"/>
<path d="M0 0 C0.33 0.66 0.66 1.32 1 2 C1.66 2 2.32 2 3 2 C3 3.65 3 5.3 3 7 C1.02 7.99 1.02 7.99 -1 9 C-3 4.25 -3 4.25 -3 2 C-2.01 2 -1.02 2 0 2 C0 1.34 0 0.68 0 0 Z " fill="#F6F7F8" transform="translate(271,189)"/>
<path d="M0 0 C0.721875 0.268125 1.44375 0.53625 2.1875 0.8125 C0.8675 1.1425 -0.4525 1.4725 -1.8125 1.8125 C-1.8125 2.4725 -1.8125 3.1325 -1.8125 3.8125 C-1.1525 4.1425 -0.4925 4.4725 0.1875 4.8125 C-4.2675 6.2975 -4.2675 6.2975 -8.8125 7.8125 C-7.34284853 3.40354559 -4.98773901 -0.33251593 0 0 Z " fill="#2A3745" transform="translate(384.8125,343.1875)"/>
<path d="M0 0 C1.9375 0.8125 1.9375 0.8125 4 2 C4.33 2.99 4.66 3.98 5 5 C3.02 5.99 3.02 5.99 1 7 C-0.0625 5.1875 -0.0625 5.1875 -1 3 C-0.67 2.01 -0.34 1.02 0 0 Z M5 2 C5.99 2.33 6.98 2.66 8 3 C7.34 3.66 6.68 4.32 6 5 C5.67 4.01 5.34 3.02 5 2 Z " fill="#F6FAFA" transform="translate(266,343)"/>
<path d="M0 0 C2.475 0.99 2.475 0.99 5 2 C4.814375 2.78375 4.62875 3.5675 4.4375 4.375 C3.74037734 6.97089775 3.74037734 6.97089775 5 9 C2.03 8.505 2.03 8.505 -1 8 C-1 6.68 -1 5.36 -1 4 C-0.34 3.67 0.32 3.34 1 3 C0.67 2.01 0.34 1.02 0 0 Z " fill="#F7F9FA" transform="translate(355,173)"/>
<path d="M0 0 C1.98 1.65 3.96 3.3 6 5 C4 7 4 7 1.375 7.125 C0.59125 7.08375 -0.1925 7.0425 -1 7 C-2 4 -2 4 -1.0625 1.8125 C-0.5365625 0.9153125 -0.5365625 0.9153125 0 0 Z " fill="#1C2A3E" transform="translate(357,183)"/>
<path d="M0 0 C2 3 2 3 1.625 5.6875 C1.41875 6.450625 1.2125 7.21375 1 8 C-0.98 7.34 -2.96 6.68 -5 6 C-4.75 4.125 -4.75 4.125 -4 2 C-1.9375 0.75 -1.9375 0.75 0 0 Z " fill="#F8FAFC" transform="translate(350,304)"/>
<path d="M0 0 C1.32 0.66 2.64 1.32 4 2 C3.01 2.33 2.02 2.66 1 3 C1.33 3.99 1.66 4.98 2 6 C1.01 6.495 1.01 6.495 0 7 C-2.125 6.0625 -2.125 6.0625 -4 5 C-3.34 3.68 -2.68 2.36 -2 1 C-1.34 1.33 -0.68 1.66 0 2 C0 1.34 0 0.68 0 0 Z " fill="#E3E7EA" transform="translate(353,174)"/>
<path d="M0 0 C-0.66 2.97 -1.32 5.94 -2 9 C-2.99 8.34 -3.98 7.68 -5 7 C-5.99 7.495 -5.99 7.495 -7 8 C-7 6.68 -7 5.36 -7 4 C-2.77777778 0 -2.77777778 0 0 0 Z " fill="#17263D" transform="translate(193,385)"/>
<path d="M0 0 C1 2 1 2 0.44140625 3.9453125 C0.15136719 4.66460937 -0.13867188 5.38390625 -0.4375 6.125 C-0.72496094 6.84945313 -1.01242188 7.57390625 -1.30859375 8.3203125 C-1.53675781 8.87460937 -1.76492187 9.42890625 -2 10 C-2.66 10 -3.32 10 -4 10 C-4 9.01 -4 8.02 -4 7 C-4.66 7 -5.32 7 -6 7 C-4.60667426 3.63279613 -3.0210714 2.0140476 0 0 Z " fill="#F9FAF9" transform="translate(203,373)"/>
<path d="M0 0 C2 3 2 3 2 7 C1.34 7 0.68 7 0 7 C0 7.66 0 8.32 0 9 C-1.65 9.33 -3.3 9.66 -5 10 C-3.35 6.7 -1.7 3.4 0 0 Z " fill="#E5EAEE" transform="translate(368,280)"/>
<path d="M0 0 C2.00993705 2.00993705 2.89940919 3.59211232 4.125 6.125 C4.47820312 6.84945313 4.83140625 7.57390625 5.1953125 8.3203125 C5.46085937 8.87460937 5.72640625 9.42890625 6 10 C5.01 10.33 4.02 10.66 3 11 C2.34 10.01 1.68 9.02 1 8 C0.01 8.495 0.01 8.495 -1 9 C-1.125 2.25 -1.125 2.25 0 0 Z " fill="#293545" transform="translate(251,260)"/>
<path d="M0 0 C-0.99 1.485 -0.99 1.485 -2 3 C-4.3828125 3.29296875 -4.3828125 3.29296875 -7.125 3.1875 C-8.03507812 3.16042969 -8.94515625 3.13335937 -9.8828125 3.10546875 C-10.58148438 3.07066406 -11.28015625 3.03585937 -12 3 C-4.82142857 -1.78571429 -4.82142857 -1.78571429 0 0 Z " fill="#273344" transform="translate(444,442)"/>
<path d="M0 0 C0.66 0.33 1.32 0.66 2 1 C-1.95667149 5.56539018 -6.27855227 6.67966591 -12 8 C-8.71268307 4.16479692 -4.74852829 1.67534656 0 0 Z " fill="#D5DAE3" transform="translate(232,345)"/>
<path d="M0 0 C0.33 0 0.66 0 1 0 C0.67 2.64 0.34 5.28 0 8 C-1.32 7.67 -2.64 7.34 -4 7 C-4 5.68 -4 4.36 -4 3 C-3.34 3 -2.68 3 -2 3 C-1.67 2.34 -1.34 1.68 -1 1 C-0.67 0.67 -0.34 0.34 0 0 Z " fill="#F9F8FB" transform="translate(378,340)"/>
<path d="M0 0 C1.32 0 2.64 0 4 0 C4 0.99 4 1.98 4 3 C5.32 3 6.64 3 8 3 C8.33 3.99 8.66 4.98 9 6 C5.7 5.01 2.4 4.02 -1 3 C-0.67 2.01 -0.34 1.02 0 0 Z " fill="#2A3346" transform="translate(303,306)"/>
<path d="M0 0 C0.99 0.66 1.98 1.32 3 2 C2.625 3.9375 2.625 3.9375 2 6 C1.01 6.495 1.01 6.495 0 7 C-0.66 7.99 -1.32 8.98 -2 10 C-2 7.36 -2 4.72 -2 2 C-1.34 2 -0.68 2 0 2 C0 1.34 0 0.68 0 0 Z " fill="#F9FCFE" transform="translate(252,238)"/>
<path d="M0 0 C0.66 0.33 1.32 0.66 2 1 C3.47180796 5.82425944 4.25376143 9.92477148 4 15 C3.71382813 14.42507812 3.42765625 13.85015625 3.1328125 13.2578125 C2.40683342 11.8108611 1.6731345 10.36774192 0.9296875 8.9296875 C0.58164062 8.25164062 0.23359375 7.57359375 -0.125 6.875 C-0.47820312 6.19179687 -0.83140625 5.50859375 -1.1953125 4.8046875 C-2 3 -2 3 -2 1 C-1.34 0.67 -0.68 0.34 0 0 Z " fill="#2A3346" transform="translate(380,192)"/>
<path d="M0 0 C0.73605469 0.00451172 1.47210938 0.00902344 2.23046875 0.01367188 C4.02868158 0.02534858 5.82685197 0.04327989 7.625 0.0625 C7.625 0.3925 7.625 0.7225 7.625 1.0625 C3.005 1.0625 -1.615 1.0625 -6.375 1.0625 C-6.375 1.7225 -6.375 2.3825 -6.375 3.0625 C-9.015 2.7325 -11.655 2.4025 -14.375 2.0625 C-14.375 1.7325 -14.375 1.4025 -14.375 1.0625 C-9.51770355 0.08950844 -4.9249375 -0.05788805 0 0 Z " fill="#525B6C" transform="translate(320.375,171.9375)"/>
<path d="M0 0 C1.0625 1.8125 1.0625 1.8125 2 4 C1.67 4.99 1.34 5.98 1 7 C-0.98 7 -2.96 7 -5 7 C-3.47793991 4.37098712 -2.15634036 2.15634036 0 0 Z " fill="#242C3E" transform="translate(278,190)"/>
<path d="M0 0 C-1.32 0.33 -2.64 0.66 -4 1 C-4 1.99 -4 2.98 -4 4 C-6.64 4 -9.28 4 -12 4 C-11 2 -11 2 -9.00390625 1.11328125 C-7.79541016 0.71689453 -7.79541016 0.71689453 -6.5625 0.3125 C-5.75941406 0.04050781 -4.95632813 -0.23148438 -4.12890625 -0.51171875 C-2 -1 -2 -1 0 0 Z " fill="#273146" transform="translate(306,175)"/>
<path d="M0 0 C-3.96 0.99 -7.92 1.98 -12 3 C-12.33 2.01 -12.66 1.02 -13 0 C-11.39950296 -0.39036513 -9.79437629 -0.76178619 -8.1875 -1.125 C-7.29417969 -1.33382812 -6.40085937 -1.54265625 -5.48046875 -1.7578125 C-3 -2 -3 -2 0 0 Z " fill="#242E3F" transform="translate(309,165)"/>
<path d="M0 0 C0.99 0 1.98 0 3 0 C4.8125 2.25 4.8125 2.25 6 5 C5.1875 7.3125 5.1875 7.3125 4 9 C2 8 2 8 1.3671875 6.15234375 C1.20476562 5.42144531 1.04234375 4.69054687 0.875 3.9375 C0.70742188 3.20402344 0.53984375 2.47054688 0.3671875 1.71484375 C0.24601562 1.14894531 0.12484375 0.58304687 0 0 Z " fill="#2B3244" transform="translate(434,379)"/>
<path d="M0 0 C-2.15777592 2.48144231 -3.67746968 3.70683556 -7 4 C-9.75 3.0625 -9.75 3.0625 -12 2 C-12 1.67 -12 1.34 -12 1 C-7.93631321 0.22596442 -4.13574827 -0.0984702 0 0 Z " fill="#353C4D" transform="translate(342,370)"/>
<path d="M0 0 C-1.65 1.65 -3.3 3.3 -5 5 C-5.99 4.67 -6.98 4.34 -8 4 C-7.1875 2.0625 -7.1875 2.0625 -6 0 C-3 -1 -3 -1 0 0 Z " fill="#212E43" transform="translate(224,349)"/>
<path d="M0 0 C0 0.99 0 1.98 0 3 C-2.57213134 4.61949011 -3.67669159 5.04408751 -6.75 4.625 C-7.4925 4.41875 -8.235 4.2125 -9 4 C-3.7826087 0 -3.7826087 0 0 0 Z " fill="#DDE0E8" transform="translate(278,325)"/>
<path d="M0 0 C2.475 0.99 2.475 0.99 5 2 C4.01 3.98 3.02 5.96 2 8 C0.5 6.6875 0.5 6.6875 -1 5 C-1 2 -1 2 0 0 Z " fill="#253144" transform="translate(362,281)"/>
<path d="M0 0 C0.99 0 1.98 0 3 0 C3 0.99 3 1.98 3 3 C3.66 3.33 4.32 3.66 5 4 C3.02 4.99 3.02 4.99 1 6 C0.01 5.01 -0.98 4.02 -2 3 C-1.34 2.01 -0.68 1.02 0 0 Z " fill="#F9FBFD" transform="translate(214,358)"/>
<path d="M0 0 C3.465 1.485 3.465 1.485 7 3 C6.67 4.32 6.34 5.64 6 7 C5.01 7 4.02 7 3 7 C2.87625 6.360625 2.7525 5.72125 2.625 5.0625 C2.315625 4.0415625 2.315625 4.0415625 2 3 C1.34 2.67 0.68 2.34 0 2 C0 1.34 0 0.68 0 0 Z " fill="#202B41" transform="translate(402,351)"/>
<path d="M0 0 C2.125 0.375 2.125 0.375 4 1 C4 1.66 4 2.32 4 3 C5.65 3.33 7.3 3.66 9 4 C8.34 4.66 7.68 5.32 7 6 C2.545 4.02 2.545 4.02 -2 2 C-1.34 1.34 -0.68 0.68 0 0 Z " fill="#E0E3E9" transform="translate(399,347)"/>
<path d="M0 0 C0.99 0.33 1.98 0.66 3 1 C4.1875 4.0625 4.1875 4.0625 5 7 C4.01 7.495 4.01 7.495 3 8 C3 7.34 3 6.68 3 6 C2.01 5.67 1.02 5.34 0 5 C0 4.34 0 3.68 0 3 C-0.66 2.34 -1.32 1.68 -2 1 C-1.34 0.67 -0.68 0.34 0 0 Z " fill="#FCFDFD" transform="translate(344,169)"/>
<path d="M0 0 C1.65 0.33 3.3 0.66 5 1 C4.67 2.65 4.34 4.3 4 6 C2.35 5.67 0.7 5.34 -1 5 C-1 2 -1 2 0 0 Z " fill="#1D293C" transform="translate(387,345)"/>
<path d="M0 0 C2.91517292 1.07401108 4.77810176 1.77810176 7 4 C4.69 4.66 2.38 5.32 0 6 C0 4 0 2 0 0 Z " fill="#1E2A3D" transform="translate(289,311)"/>
<path d="M0 0 C0.66 0 1.32 0 2 0 C2 0.66 2 1.32 2 2 C2.66 2 3.32 2 4 2 C4 1.34 4 0.68 4 0 C4.99 0.33 5.98 0.66 7 1 C4.31158141 3.25245881 2.35358125 4.88213958 -1 6 C-0.67 4.02 -0.34 2.04 0 0 Z " fill="#2B3547" transform="translate(282,170)"/>
<path d="M0 0 C2.125 0.9375 2.125 0.9375 4 2 C2.75 3.5625 2.75 3.5625 1 5 C-1.1875 4.6875 -1.1875 4.6875 -3 4 C-2.67 3.01 -2.34 2.02 -2 1 C-1.34 0.67 -0.68 0.34 0 0 Z " fill="#222D45" transform="translate(351,353)"/>
<path d="M0 0 C0.33 0.66 0.66 1.32 1 2 C0.34 2.66 -0.32 3.32 -1 4 C-1 3.34 -1 2.68 -1 2 C-1.598125 2.226875 -2.19625 2.45375 -2.8125 2.6875 C-3.534375 2.790625 -4.25625 2.89375 -5 3 C-6.75 1.5625 -6.75 1.5625 -8 0 C-4.97878489 -0.97110486 -2.99536737 -1.13617383 0 0 Z " fill="#30384C" transform="translate(262,344)"/>
<path d="M0 0 C1.32 0 2.64 0 4 0 C4 0.66 4 1.32 4 2 C5.65 2.33 7.3 2.66 9 3 C8.67 3.66 8.34 4.32 8 5 C2.25 3.125 2.25 3.125 0 2 C0 1.34 0 0.68 0 0 Z " fill="#273041" transform="translate(380,330)"/>
<path d="M0 0 C3.83736322 0.95934081 4.59660228 1.23609263 7 4 C6.34 5.32 5.68 6.64 5 8 C2.525 4.04 2.525 4.04 0 0 Z " fill="#273545" transform="translate(372,185)"/>
<path d="M0 0 C2.97 0 5.94 0 9 0 C9.33 0.99 9.66 1.98 10 3 C5.82412255 4.39195915 3.86525224 2.82323219 0 1 C0 0.67 0 0.34 0 0 Z " fill="#D7DDE3" transform="translate(287,364)"/>
<path d="M0 0 C0.66 0.66 1.32 1.32 2 2 C1.625 5.125 1.625 5.125 1 8 C0.896875 7.360625 0.79375 6.72125 0.6875 6.0625 C0.460625 5.381875 0.23375 4.70125 0 4 C-0.99 3.67 -1.98 3.34 -3 3 C-3 2.34 -3 1.68 -3 1 C-2.01 0.67 -1.02 0.34 0 0 Z " fill="#F8F9FD" transform="translate(223,352)"/>
<path d="M0 0 C-0.928125 0.45375 -1.85625 0.9075 -2.8125 1.375 C-6.03921389 2.9421633 -6.03921389 2.9421633 -9 5 C-9.66 4.34 -10.32 3.68 -11 3 C-9.73581754 2.30034557 -8.46334598 1.61565237 -7.1875 0.9375 C-6.47980469 0.55464844 -5.77210938 0.17179687 -5.04296875 -0.22265625 C-3 -1 -3 -1 0 0 Z " fill="#DDE5EB" transform="translate(357,302)"/>
<path d="M0 0 C0.99 0.99 1.98 1.98 3 3 C2.01 4.485 2.01 4.485 1 6 C0.01 6 -0.98 6 -2 6 C-1.49396008 3.83125748 -1.00016187 2.00032373 0 0 Z " fill="#202A3C" transform="translate(372,290)"/>
<path d="M0 0 C0.66 0 1.32 0 2 0 C2.66 0.99 3.32 1.98 4 3 C4.99387334 4.33790641 5.9926892 5.67218122 7 7 C4 7 4 7 2.375 5.75 C0.8631638 3.82584484 0.41208721 2.39010582 0 0 Z " fill="#E0E6ED" transform="translate(191,429)"/>
<path d="M0 0 C0.33 1.32 0.66 2.64 1 4 C0.01 4.33 -0.98 4.66 -2 5 C-2.66 5.66 -3.32 6.32 -4 7 C-4.66 6.34 -5.32 5.68 -6 5 C-4.02 3.35 -2.04 1.7 0 0 Z " fill="#2F3946" transform="translate(223,360)"/>
<path d="M0 0 C-0.33 0.99 -0.66 1.98 -1 3 C-4.0625 4.1875 -4.0625 4.1875 -7 5 C-7.66 4.34 -8.32 3.68 -9 3 C-2.25 0 -2.25 0 0 0 Z " fill="#404C59" transform="translate(247,348)"/>
</svg>
